<?xml version="1.0" encoding="UTF-8"?>
<svg id="Layer_1" data-name="Layer 1" xmlns="http://www.w3.org/2000/svg" viewBox="0 0 1000 193.03">
  <defs>
    <style>
      .cls-1 {
        fill: #00404a;
      }

      .cls-2 {
        fill: #258255;
      }

      .cls-3 {
        opacity: .8;
      }

      .cls-3, .cls-4 {
        fill: #41b97a;
      }

      .cls-4 {
        opacity: .3;
      }
    </style>
  </defs>
  <path class="cls-1" d="m523.49,110.3h-102.26c.39,7.59,2.06,14.15,5.15,19.55,6.82,12.09,19.42,18.65,35.76,18.65,5.27,0,10.16-.64,14.54-2.06,8.62-2.7,16.07-9,19.28-17.11h27.62c-.74,2.3-1.88,5.12-3.28,8.03-5.96,12.42-16.02,21.74-28.96,26.57-9.36,3.49-19.51,4.76-29.45,4.76-14.02,0-26.24-2.7-36.53-8.1-20.58-10.68-32.03-30.74-32.03-56.86,0-12.99,2.7-24.44,8.23-34.35,10.81-19.81,31.13-31.39,57.89-31.39,16.34,0,32.03,4.37,44.25,14.54,12.22,10.16,19.81,26.24,19.81,49.01v8.75Zm-102.13-18.39h74.48c-.64-5.27-1.93-10.16-3.86-14.54-5.53-11.83-16.47-19.04-32.54-19.04-8.1,0-14.92,1.67-20.58,5.02-10.42,6.17-16.59,16.72-17.49,28.56Z"/>
  <path class="cls-1" d="m335.94,110.24h-102.26c.39,7.59,2.06,14.15,5.15,19.55,6.82,12.09,19.42,18.65,35.76,18.65,5.27,0,10.16-.64,14.54-2.06,8.62-2.7,16.07-9,19.28-17.11h27.62c-.74,2.3-1.88,5.12-3.28,8.03-5.96,12.42-16.02,21.74-28.96,26.57-9.36,3.49-19.51,4.76-29.45,4.76-14.02,0-26.24-2.7-36.53-8.1-20.58-10.68-32.03-30.74-32.03-56.86,0-12.99,2.7-24.44,8.23-34.35,10.81-19.81,31.13-31.39,57.89-31.39,16.34,0,32.03,4.37,44.25,14.54,12.22,10.16,19.81,26.24,19.81,49.01v8.75Zm-102.13-18.39h74.48c-.64-5.27-1.93-10.16-3.86-14.54-5.53-11.83-16.47-19.04-32.54-19.04-8.1,0-14.92,1.67-20.58,5.02-10.42,6.17-16.59,16.72-17.49,28.56Z"/>
  <path class="cls-1" d="m378.21,168.64h-27.78V0h27.78v168.64Z"/>
  <path class="cls-1" d="m603.49,168.64h-30.1l-52.1-130.57h29.97l37.29,102.56,37.06-102.56h29.84l-51.97,130.57Z"/>
  <path class="cls-1" d="m685.84,160.53c-20.2-10.81-31.77-31-31.77-57.11,0-13.12,2.83-24.57,8.36-34.47,11.06-19.55,31.77-31,58.66-31,13.51,0,25.34,2.7,35.37,8.1,20.07,10.93,31.77,31.13,31.77,57.37,0,12.99-2.83,24.44-8.36,34.22-11.19,19.68-31.64,31-58.79,31-13.51,0-25.21-2.7-35.25-8.1Zm57.11-18.78c11.45-8.1,16.98-22.25,16.98-38.33,0-8.1-1.41-15.56-4.12-22.38-5.66-13.51-17.11-22.38-34.73-22.38-8.75,0-15.95,2.06-21.61,6.05-11.45,8.23-17.11,22.38-17.11,38.72,0,8.1,1.41,15.44,4.24,22.12,5.66,13.51,16.98,22.38,34.47,22.38,8.88,0,16.08-2.06,21.87-6.17Z"/>
  <path class="cls-1" d="m833.55,168.64h-27.78V39.65h26.88v19.77s3.7-6.14,5.77-8.73c7.02-8.77,19.68-12.63,32.69-12.63h13.18v23.14h-16.68c-1.94,0-5.07.11-6.9.32-2.05.24-2.48.4-4.38.91-21.5,5.78-22.78,35.38-22.78,53.75v52.44Z"/>
  <path class="cls-1" d="m903.1,164.14c-14.79-5.91-23.93-17.46-23.93-33.89,0-14.38,6.69-22.98,17.37-28.5,10.68-5.52,24.05-7.7,37.82-9.24,8.62-.9,15.69-1.54,20.97-2.18,4.92-.53,12.31-.99,14.58-6.28,1.26-2.95.73-6.6.04-9.64-.71-3.1-1.99-6.13-4.13-8.52-3.12-3.48-7.73-4.44-12.22-4.42h-56.18s.17-23.14.17-23.14h45.26c11.45,0,25.09,1.67,36.54,7.84,11.32,6.29,19.3,17.59,19.3,35.95v86.53h-27.4v-21.91s-1.03,1.88-1.03,1.88c-1.67,3.08-4.37,6.16-7.98,9.24-7.33,6.29-18.52,10.78-34.47,10.78-9.13,0-17.37-1.41-24.7-4.49Zm50.66-21.79c9.89-6.18,17.01-16.32,17.01-28.79v-9.38c-4.89,3.59-25.86,5.65-34.6,6.68-5.4.64-10.29,1.54-14.79,2.95-8.88,2.82-14.79,8.09-14.79,16.82,0,12.2,8.65,18.29,24.47,18.29,7.95,0,15.97-2.36,22.71-6.57Z"/>
  <g>
    <path class="cls-4" d="m108.87,179.4c2.35-33.98-1.47-64.25-6.45-87.41-23.44-1.56-53.56-.99-86.42,6.06-.44.09-2.81.55-2.81.55,0,0-2.05.29-2.27.34-.6.14-1.14.19-1.68.23.12-.01.23,0,.35-.02,59.13-9.73,95.58,13.39,99.13,84.3,0-.59,0-1.19,0-1.19,0,0,.12-2.42.15-2.87Z"/>
    <path class="cls-3" d="m13.19,98.6s2.37-.46,2.81-.55c32.86-7.05,62.98-7.62,86.42-6.06-6.21-28.89-14.19-46.7-14.2-46.7L6.55,82.09c-.49.22-.94.49-1.36.78-.2.14-.38.3-.56.46-.19.16-.39.32-.56.49-.22.22-.42.46-.62.71-.1.12-.2.24-.29.36-.21.3-.41.61-.58.93-.04.08-.08.15-.12.23-.19.37-.35.74-.5,1.13-.01.03-.02.07-.03.1-.15.42-.27.85-.36,1.29,0,.01,0,.02,0,.03-.09.44-.16.89-.2,1.35,0,.08,0,.15-.01.23-.02.37-.03.73-.02,1.1,0,.22.04.44.06.66.03.3.06.59.11.88.05.26.12.52.19.78.08.29.16.57.27.85.06.17.14.34.21.51.16.37.35.72.55,1.05.05.08.1.17.16.25.23.34.49.66.76.96.08.08.15.17.23.25.39.39.81.72,1.27.98.04.02.09.04.13.07.45.24.93.42,1.44.54.12.03.25.04.37.06.43.08.88.11,1.35.11.26,0,.52-.02.79-.05.54-.05,1.08-.1,1.68-.23.23-.05,2.27-.34,2.27-.34Z"/>
    <path class="cls-3" d="m151.21,99.42c-.05-.02-19.03-5.45-48.79-7.43,4.97,23.16,8.8,53.43,6.45,87.41-.03.45-.15,2.87-.15,2.87,0,0,0,.6,0,1.19.05,1.02.12,2.02.16,3.06.06,1.66.61,2.99,1.46,4.01.24.26.48.53.78.75.05.04.09.09.15.13,1.66,1.2,3.93,1.79,6.21,1.57.06,0,.12-.01.17-.02.42-.05.84-.12,1.25-.21.05-.01.11-.03.16-.04.4-.1.79-.21,1.17-.35.12-.04.24-.1.36-.15.31-.13.62-.26.92-.41.21-.11.41-.24.62-.37.2-.12.41-.24.6-.38.34-.25.66-.52.97-.81.05-.05.11-.08.16-.13.35-.35.67-.72.96-1.13.11-.15.19-.33.29-.49.16-.26.32-.52.46-.81.1-.22.18-.46.27-.7.13-.34.26-.67.35-1.04l24.08-83.19.23-.8.73-2.55Z"/>
    <path class="cls-2" d="m151.21,99.42l20.71-72.01c1.14-3.96-1.09-8.54-4.74-11.29-.11-.08-.22-.16-.33-.24-.23-.16-.46-.31-.7-.45-.28-.17-.56-.33-.86-.48-.1-.05-.2-.1-.31-.15-.37-.18-.74-.34-1.12-.47-.08-.03-.16-.05-.24-.08-.36-.12-.73-.23-1.1-.31-.18-.04-.35-.07-.53-.1-.27-.05-.54-.09-.81-.12-.32-.03-.65-.04-.98-.04-.15,0-.3,0-.44,0-.31.02-.62.07-.93.11-.67.11-1.33.27-1.95.55l-68.67,30.94s7.99,17.81,14.2,46.7c29.76,1.98,48.74,7.42,48.79,7.43Z"/>
  </g>
</svg>